<svg width="1440" height="1010" viewBox="0 0 1440 1010" fill="none" xmlns="http://www.w3.org/2000/svg">
<rect width="1440" height="1010" fill="#2B2B2B"/>
<path fill-rule="evenodd" clip-rule="evenodd" d="M592 419.567H625.875C659.75 419.567 727.5 419.567 795.25 423.678C863 427.789 930.75 436.599 998.5 419.567C1066.25 402.535 1134 360.249 1201.75 343.217C1269.5 326.772 1337.25 334.994 1371.13 339.106L1405 343.217V546.426H1371.13C1337.25 546.426 1269.5 546.426 1201.75 546.426C1134 546.426 1066.25 546.426 998.5 546.426C930.75 546.426 863 546.426 795.25 546.426C727.5 546.426 659.75 546.426 625.875 546.426H592V419.567Z" fill="#A3A3A4" fill-opacity="0.28"/>
<path fill-rule="evenodd" clip-rule="evenodd" d="M0 479.131L40.9167 504.19C81.8333 529.248 163.667 578.5 245.5 553.442C327.333 529.248 409.167 429.015 491 410.87C572.833 391.86 654.667 454.073 736.5 498.141C818.333 541.345 900.167 566.403 941.083 578.5L982 591.461V665.771H941.083C900.167 665.771 818.333 665.771 736.5 665.771C654.667 665.771 572.833 665.771 491 665.771C409.167 665.771 327.333 665.771 245.5 665.771C163.667 665.771 81.8333 665.771 40.9167 665.771H0V479.131Z" fill="#869199" fill-opacity="0.51"/>
<path fill-rule="evenodd" clip-rule="evenodd" d="M0 595.057H48C96 595.057 192 595.057 288 550.371C384 505.685 480 413.121 576 365.243C672 320.557 768 320.557 864 342.9C960 365.243 1056 413.121 1152 413.121C1248 413.121 1344 365.243 1392 342.9L1440 320.557V1010H1392C1344 1010 1248 1010 1152 1010C1056 1010 960 1010 864 1010C768 1010 672 1010 576 1010C480 1010 384 1010 288 1010C192 1010 96 1010 48 1010H0V595.057Z" fill="url(#paint0_linear)"/>
<defs>
<linearGradient id="paint0_linear" x1="1276.5" y1="413.765" x2="131.898" y2="936.984" gradientUnits="userSpaceOnUse">
<stop stop-color="#BD00FF"/>
<stop offset="1" stop-color="#4200FF"/>
</linearGradient>
</defs>
</svg>
