<svg width="1440" height="1024" viewBox="0 0 1440 1024" fill="none" xmlns="http://www.w3.org/2000/svg">
<rect width="1440" height="1024" fill="white"/>
<path fill-rule="evenodd" clip-rule="evenodd" d="M592 425.383H625.875C659.75 425.383 727.5 425.383 795.25 429.551C863 433.719 930.75 442.651 998.5 425.383C1066.25 408.115 1134 365.242 1201.75 347.974C1269.5 331.302 1337.25 339.638 1371.13 343.806L1405 347.974V554H1371.13C1337.25 554 1269.5 554 1201.75 554C1134 554 1066.25 554 998.5 554C930.75 554 863 554 795.25 554C727.5 554 659.75 554 625.875 554H592V425.383Z" fill="#A3A3A4" fill-opacity="0.28"/>
<path fill-rule="evenodd" clip-rule="evenodd" d="M0 485.773L40.9167 511.178C81.8333 536.584 163.667 586.519 245.5 561.113C327.333 536.584 409.167 434.962 491 416.565C572.833 397.292 654.667 460.367 736.5 505.046C818.333 548.849 900.167 574.254 941.083 586.519L982 599.66V675H941.083C900.167 675 818.333 675 736.5 675C654.667 675 572.833 675 491 675C409.167 675 327.333 675 245.5 675C163.667 675 81.8333 675 40.9167 675H0V485.773Z" fill="#869199" fill-opacity="0.51"/>
<path fill-rule="evenodd" clip-rule="evenodd" d="M0 603.306H48C96 603.306 192 603.306 288 558C384 512.694 480 418.847 576 370.306C672 325 768 325 864 347.653C960 370.306 1056 418.847 1152 418.847C1248 418.847 1344 370.306 1392 347.653L1440 325V1024H1392C1344 1024 1248 1024 1152 1024C1056 1024 960 1024 864 1024C768 1024 672 1024 576 1024C480 1024 384 1024 288 1024C192 1024 96 1024 48 1024H0V603.306Z" fill="url(#paint0_linear)"/>
<defs>
<linearGradient id="paint0_linear" x1="1276.5" y1="419.5" x2="126.5" y2="938" gradientUnits="userSpaceOnUse">
<stop stop-color="#0099FF"/>
<stop offset="1" stop-color="#00A3FF"/>
</linearGradient>
</defs>
</svg>
